<svg xmlns="http://www.w3.org/2000/svg" xmlns:xlink="http://www.w3.org/1999/xlink" width="500" zoomAndPan="magnify" viewBox="0 0 375 374.999991" height="500" preserveAspectRatio="xMidYMid meet" version="1.0"><defs><g/><clipPath id="55f1f56228"><path d="M 40.734375 152 L 61 152 L 61 213 L 40.734375 213 Z M 40.734375 152 " clip-rule="nonzero"/></clipPath><clipPath id="edeafa4682"><path d="M 67 138.703125 L 102 138.703125 L 102 233 L 67 233 Z M 67 138.703125 " clip-rule="nonzero"/></clipPath><clipPath id="8422a18374"><path d="M 314 152 L 334.410156 152 L 334.410156 213 L 314 213 Z M 314 152 " clip-rule="nonzero"/></clipPath><clipPath id="dfdf2b0326"><path d="M 273 138.703125 L 308 138.703125 L 308 233 L 273 233 Z M 273 138.703125 " clip-rule="nonzero"/></clipPath></defs><rect x="-37.5" width="450" fill="#ffffff" y="-37.499999" height="449.999989" fill-opacity="1"/><rect x="-37.5" width="450" fill="#ffffff" y="-37.499999" height="449.999989" fill-opacity="1"/><g fill="#0cc0df" fill-opacity="1"><g transform="translate(112.225361, 210.729289)"><g><path d="M 10.875 0.3125 C 9.019531 0.3125 7.34375 -0.0859375 5.84375 -0.890625 C 4.34375 -1.703125 3.160156 -2.820312 2.296875 -4.25 C 1.441406 -5.675781 1.015625 -7.289062 1.015625 -9.09375 C 1.015625 -10.894531 1.441406 -12.507812 2.296875 -13.9375 C 3.160156 -15.375 4.34375 -16.492188 5.84375 -17.296875 C 7.34375 -18.109375 9.023438 -18.515625 10.890625 -18.515625 C 12.472656 -18.515625 13.898438 -18.234375 15.171875 -17.671875 C 16.441406 -17.117188 17.507812 -16.320312 18.375 -15.28125 L 15.671875 -12.796875 C 14.441406 -14.210938 12.921875 -14.921875 11.109375 -14.921875 C 9.972656 -14.921875 8.960938 -14.671875 8.078125 -14.171875 C 7.203125 -13.679688 6.515625 -12.992188 6.015625 -12.109375 C 5.523438 -11.234375 5.28125 -10.226562 5.28125 -9.09375 C 5.28125 -7.96875 5.523438 -6.960938 6.015625 -6.078125 C 6.515625 -5.203125 7.203125 -4.515625 8.078125 -4.015625 C 8.960938 -3.523438 9.972656 -3.28125 11.109375 -3.28125 C 12.921875 -3.28125 14.441406 -4 15.671875 -5.4375 L 18.375 -2.9375 C 17.507812 -1.882812 16.4375 -1.078125 15.15625 -0.515625 C 13.875 0.0351562 12.445312 0.3125 10.875 0.3125 Z M 10.875 0.3125 "/></g></g></g><g fill="#0cc0df" fill-opacity="1"><g transform="translate(131.277655, 210.729289)"><g><path d="M 10.96875 0.3125 C 9.082031 0.3125 7.378906 -0.09375 5.859375 -0.90625 C 4.347656 -1.71875 3.160156 -2.835938 2.296875 -4.265625 C 1.441406 -5.703125 1.015625 -7.3125 1.015625 -9.09375 C 1.015625 -10.882812 1.441406 -12.492188 2.296875 -13.921875 C 3.160156 -15.347656 4.347656 -16.46875 5.859375 -17.28125 C 7.378906 -18.101562 9.082031 -18.515625 10.96875 -18.515625 C 12.863281 -18.515625 14.5625 -18.101562 16.0625 -17.28125 C 17.570312 -16.46875 18.757812 -15.347656 19.625 -13.921875 C 20.5 -12.492188 20.9375 -10.882812 20.9375 -9.09375 C 20.9375 -7.3125 20.5 -5.703125 19.625 -4.265625 C 18.757812 -2.835938 17.570312 -1.71875 16.0625 -0.90625 C 14.5625 -0.09375 12.863281 0.3125 10.96875 0.3125 Z M 10.96875 -3.28125 C 12.039062 -3.28125 13.007812 -3.523438 13.875 -4.015625 C 14.75 -4.515625 15.429688 -5.203125 15.921875 -6.078125 C 16.421875 -6.960938 16.671875 -7.96875 16.671875 -9.09375 C 16.671875 -10.226562 16.421875 -11.234375 15.921875 -12.109375 C 15.429688 -12.992188 14.75 -13.679688 13.875 -14.171875 C 13.007812 -14.671875 12.039062 -14.921875 10.96875 -14.921875 C 9.894531 -14.921875 8.925781 -14.671875 8.0625 -14.171875 C 7.195312 -13.679688 6.515625 -12.992188 6.015625 -12.109375 C 5.523438 -11.234375 5.28125 -10.226562 5.28125 -9.09375 C 5.28125 -7.96875 5.523438 -6.960938 6.015625 -6.078125 C 6.515625 -5.203125 7.195312 -4.515625 8.0625 -4.015625 C 8.925781 -3.523438 9.894531 -3.28125 10.96875 -3.28125 Z M 10.96875 -3.28125 "/></g></g></g><g fill="#0cc0df" fill-opacity="1"><g transform="translate(153.215085, 210.729289)"><g><path d="M 14.140625 -3.90625 L 5.6875 -3.90625 L 4.078125 0 L -0.234375 0 L 7.875 -18.203125 L 12.03125 -18.203125 L 20.171875 0 L 15.75 0 Z M 12.8125 -7.09375 L 9.9375 -14.0625 L 7.046875 -7.09375 Z M 12.8125 -7.09375 "/></g></g></g><g fill="#0cc0df" fill-opacity="1"><g transform="translate(173.125125, 210.729289)"><g><path d="M 10.875 0.3125 C 9.019531 0.3125 7.34375 -0.0859375 5.84375 -0.890625 C 4.34375 -1.703125 3.160156 -2.820312 2.296875 -4.25 C 1.441406 -5.675781 1.015625 -7.289062 1.015625 -9.09375 C 1.015625 -10.894531 1.441406 -12.507812 2.296875 -13.9375 C 3.160156 -15.375 4.34375 -16.492188 5.84375 -17.296875 C 7.34375 -18.109375 9.023438 -18.515625 10.890625 -18.515625 C 12.472656 -18.515625 13.898438 -18.234375 15.171875 -17.671875 C 16.441406 -17.117188 17.507812 -16.320312 18.375 -15.28125 L 15.671875 -12.796875 C 14.441406 -14.210938 12.921875 -14.921875 11.109375 -14.921875 C 9.972656 -14.921875 8.960938 -14.671875 8.078125 -14.171875 C 7.203125 -13.679688 6.515625 -12.992188 6.015625 -12.109375 C 5.523438 -11.234375 5.28125 -10.226562 5.28125 -9.09375 C 5.28125 -7.96875 5.523438 -6.960938 6.015625 -6.078125 C 6.515625 -5.203125 7.203125 -4.515625 8.078125 -4.015625 C 8.960938 -3.523438 9.972656 -3.28125 11.109375 -3.28125 C 12.921875 -3.28125 14.441406 -4 15.671875 -5.4375 L 18.375 -2.9375 C 17.507812 -1.882812 16.4375 -1.078125 15.15625 -0.515625 C 13.875 0.0351562 12.445312 0.3125 10.875 0.3125 Z M 10.875 0.3125 "/></g></g></g><g fill="#0cc0df" fill-opacity="1"><g transform="translate(192.17742, 210.729289)"><g><path d="M 18.84375 -18.203125 L 18.84375 0 L 14.640625 0 L 14.640625 -7.46875 L 6.375 -7.46875 L 6.375 0 L 2.15625 0 L 2.15625 -18.203125 L 6.375 -18.203125 L 6.375 -11.03125 L 14.640625 -11.03125 L 14.640625 -18.203125 Z M 18.84375 -18.203125 "/></g></g></g><g fill="#0cc0df" fill-opacity="1"><g transform="translate(213.179124, 210.729289)"><g><path d="M 2.15625 -18.203125 L 6.375 -18.203125 L 6.375 0 L 2.15625 0 Z M 2.15625 -18.203125 "/></g></g></g><g fill="#0cc0df" fill-opacity="1"><g transform="translate(221.704571, 210.729289)"><g><path d="M 18.84375 -18.203125 L 18.84375 0 L 15.390625 0 L 6.3125 -11.046875 L 6.3125 0 L 2.15625 0 L 2.15625 -18.203125 L 5.640625 -18.203125 L 14.6875 -7.15625 L 14.6875 -18.203125 Z M 18.84375 -18.203125 "/></g></g></g><g fill="#0cc0df" fill-opacity="1"><g transform="translate(242.706275, 210.729289)"><g><path d="M 14.453125 -9.390625 L 18.296875 -9.390625 L 18.296875 -2 C 17.316406 -1.257812 16.175781 -0.6875 14.875 -0.28125 C 13.570312 0.113281 12.265625 0.3125 10.953125 0.3125 C 9.054688 0.3125 7.351562 -0.0859375 5.84375 -0.890625 C 4.34375 -1.703125 3.160156 -2.820312 2.296875 -4.25 C 1.441406 -5.675781 1.015625 -7.289062 1.015625 -9.09375 C 1.015625 -10.894531 1.441406 -12.507812 2.296875 -13.9375 C 3.160156 -15.375 4.351562 -16.492188 5.875 -17.296875 C 7.394531 -18.109375 9.113281 -18.515625 11.03125 -18.515625 C 12.625 -18.515625 14.066406 -18.242188 15.359375 -17.703125 C 16.660156 -17.171875 17.753906 -16.390625 18.640625 -15.359375 L 15.9375 -12.875 C 14.632812 -14.238281 13.066406 -14.921875 11.234375 -14.921875 C 10.066406 -14.921875 9.03125 -14.675781 8.125 -14.1875 C 7.226562 -13.707031 6.53125 -13.023438 6.03125 -12.140625 C 5.53125 -11.253906 5.28125 -10.238281 5.28125 -9.09375 C 5.28125 -7.96875 5.53125 -6.960938 6.03125 -6.078125 C 6.53125 -5.203125 7.226562 -4.515625 8.125 -4.015625 C 9.019531 -3.523438 10.039062 -3.28125 11.1875 -3.28125 C 12.394531 -3.28125 13.484375 -3.539062 14.453125 -4.0625 Z M 14.453125 -9.390625 "/></g></g></g><g fill="#23252e" fill-opacity="1"><g transform="translate(154.002702, 182.279285)"><g><path d="M 8.140625 0.3125 C 6.703125 0.3125 5.3125 0.117188 3.96875 -0.265625 C 2.625 -0.660156 1.546875 -1.171875 0.734375 -1.796875 L 2.15625 -4.96875 C 2.9375 -4.394531 3.863281 -3.929688 4.9375 -3.578125 C 6.007812 -3.234375 7.082031 -3.0625 8.15625 -3.0625 C 9.351562 -3.0625 10.238281 -3.238281 10.8125 -3.59375 C 11.382812 -3.957031 11.671875 -4.429688 11.671875 -5.015625 C 11.671875 -5.453125 11.5 -5.8125 11.15625 -6.09375 C 10.820312 -6.382812 10.390625 -6.613281 9.859375 -6.78125 C 9.335938 -6.957031 8.625 -7.148438 7.71875 -7.359375 C 6.332031 -7.691406 5.195312 -8.019531 4.3125 -8.34375 C 3.425781 -8.675781 2.664062 -9.207031 2.03125 -9.9375 C 1.40625 -10.664062 1.09375 -11.632812 1.09375 -12.84375 C 1.09375 -13.90625 1.378906 -14.863281 1.953125 -15.71875 C 2.523438 -16.570312 3.382812 -17.25 4.53125 -17.75 C 5.6875 -18.257812 7.097656 -18.515625 8.765625 -18.515625 C 9.921875 -18.515625 11.050781 -18.375 12.15625 -18.09375 C 13.269531 -17.820312 14.242188 -17.425781 15.078125 -16.90625 L 13.78125 -13.703125 C 12.101562 -14.648438 10.421875 -15.125 8.734375 -15.125 C 7.554688 -15.125 6.6875 -14.929688 6.125 -14.546875 C 5.5625 -14.171875 5.28125 -13.671875 5.28125 -13.046875 C 5.28125 -12.421875 5.601562 -11.957031 6.25 -11.65625 C 6.90625 -11.351562 7.898438 -11.054688 9.234375 -10.765625 C 10.617188 -10.429688 11.753906 -10.097656 12.640625 -9.765625 C 13.523438 -9.441406 14.28125 -8.925781 14.90625 -8.21875 C 15.539062 -7.507812 15.859375 -6.546875 15.859375 -5.328125 C 15.859375 -4.285156 15.566406 -3.335938 14.984375 -2.484375 C 14.410156 -1.628906 13.539062 -0.945312 12.375 -0.4375 C 11.21875 0.0625 9.804688 0.3125 8.140625 0.3125 Z M 8.140625 0.3125 "/></g></g></g><g fill="#23252e" fill-opacity="1"><g transform="translate(170.585739, 182.279285)"><g><path d="M 15.578125 -6.9375 C 15.578125 -6.882812 15.550781 -6.519531 15.5 -5.84375 L 4.90625 -5.84375 C 5.101562 -4.976562 5.554688 -4.296875 6.265625 -3.796875 C 6.972656 -3.296875 7.859375 -3.046875 8.921875 -3.046875 C 9.648438 -3.046875 10.296875 -3.148438 10.859375 -3.359375 C 11.421875 -3.578125 11.941406 -3.921875 12.421875 -4.390625 L 14.59375 -2.046875 C 13.269531 -0.546875 11.34375 0.203125 8.8125 0.203125 C 7.238281 0.203125 5.84375 -0.101562 4.625 -0.71875 C 3.414062 -1.332031 2.476562 -2.179688 1.8125 -3.265625 C 1.15625 -4.359375 0.828125 -5.601562 0.828125 -7 C 0.828125 -8.363281 1.148438 -9.59375 1.796875 -10.6875 C 2.453125 -11.789062 3.347656 -12.648438 4.484375 -13.265625 C 5.617188 -13.890625 6.890625 -14.203125 8.296875 -14.203125 C 9.660156 -14.203125 10.894531 -13.90625 12 -13.3125 C 13.113281 -12.71875 13.988281 -11.867188 14.625 -10.765625 C 15.257812 -9.671875 15.578125 -8.394531 15.578125 -6.9375 Z M 8.3125 -11.125 C 7.394531 -11.125 6.625 -10.863281 6 -10.34375 C 5.375 -9.820312 4.992188 -9.113281 4.859375 -8.21875 L 11.75 -8.21875 C 11.613281 -9.101562 11.234375 -9.804688 10.609375 -10.328125 C 9.984375 -10.859375 9.21875 -11.125 8.3125 -11.125 Z M 8.3125 -11.125 "/></g></g></g><g fill="#23252e" fill-opacity="1"><g transform="translate(186.986827, 182.279285)"><g><path d="M 7.515625 -14.203125 C 9.679688 -14.203125 11.34375 -13.6875 12.5 -12.65625 C 13.664062 -11.625 14.25 -10.066406 14.25 -7.984375 L 14.25 0 L 10.453125 0 L 10.453125 -1.734375 C 9.691406 -0.441406 8.269531 0.203125 6.1875 0.203125 C 5.113281 0.203125 4.179688 0.0195312 3.390625 -0.34375 C 2.597656 -0.707031 1.992188 -1.207031 1.578125 -1.84375 C 1.171875 -2.488281 0.96875 -3.21875 0.96875 -4.03125 C 0.96875 -5.332031 1.457031 -6.351562 2.4375 -7.09375 C 3.414062 -7.84375 4.925781 -8.21875 6.96875 -8.21875 L 10.1875 -8.21875 C 10.1875 -9.101562 9.914062 -9.78125 9.375 -10.25 C 8.84375 -10.726562 8.039062 -10.96875 6.96875 -10.96875 C 6.21875 -10.96875 5.484375 -10.847656 4.765625 -10.609375 C 4.046875 -10.378906 3.4375 -10.066406 2.9375 -9.671875 L 1.484375 -12.5 C 2.242188 -13.039062 3.15625 -13.457031 4.21875 -13.75 C 5.289062 -14.050781 6.390625 -14.203125 7.515625 -14.203125 Z M 7.203125 -2.515625 C 7.890625 -2.515625 8.503906 -2.675781 9.046875 -3 C 9.585938 -3.320312 9.96875 -3.796875 10.1875 -4.421875 L 10.1875 -5.84375 L 7.40625 -5.84375 C 5.738281 -5.84375 4.90625 -5.300781 4.90625 -4.21875 C 4.90625 -3.695312 5.109375 -3.28125 5.515625 -2.96875 C 5.929688 -2.664062 6.492188 -2.515625 7.203125 -2.515625 Z M 7.203125 -2.515625 "/></g></g></g><g fill="#23252e" fill-opacity="1"><g transform="translate(203.024027, 182.279285)"><g><path d="M 10.375 -14.203125 C 12.101562 -14.203125 13.5 -13.679688 14.5625 -12.640625 C 15.632812 -11.597656 16.171875 -10.054688 16.171875 -8.015625 L 16.171875 0 L 12.109375 0 L 12.109375 -7.390625 C 12.109375 -8.492188 11.863281 -9.316406 11.375 -9.859375 C 10.894531 -10.410156 10.195312 -10.6875 9.28125 -10.6875 C 8.257812 -10.6875 7.441406 -10.367188 6.828125 -9.734375 C 6.222656 -9.097656 5.921875 -8.160156 5.921875 -6.921875 L 5.921875 0 L 1.875 0 L 1.875 -13.984375 L 5.75 -13.984375 L 5.75 -12.34375 C 6.28125 -12.9375 6.941406 -13.394531 7.734375 -13.71875 C 8.535156 -14.039062 9.414062 -14.203125 10.375 -14.203125 Z M 10.375 -14.203125 "/></g></g></g><g clip-path="url(#55f1f56228)"><path fill="#0cc0df" d="M 47.324219 212.726562 L 60.804688 212.726562 L 60.804688 152.074219 L 47.324219 152.074219 C 40.585938 152.074219 40.585938 156.484375 40.585938 158.8125 L 40.585938 205.988281 C 40.585938 208.320312 40.585938 212.726562 47.324219 212.726562 Z M 47.324219 212.726562 " fill-opacity="1" fill-rule="nonzero"/></g><g clip-path="url(#edeafa4682)"><path fill="#0cc0df" d="M 67.542969 155.445312 L 67.542969 226.203125 C 67.542969 228.535156 67.542969 232.945312 74.28125 232.945312 L 95.039062 232.945312 C 101.238281 232.945312 101.238281 228.535156 101.238281 226.203125 L 101.238281 145.335938 C 101.238281 143.003906 101.238281 138.597656 95.039062 138.597656 L 74.28125 138.597656 C 67.542969 138.597656 67.542969 143.003906 67.542969 145.335938 Z M 67.542969 155.445312 " fill-opacity="1" fill-rule="nonzero"/></g><g clip-path="url(#8422a18374)"><path fill="#0cc0df" d="M 314.195312 212.726562 L 327.671875 212.726562 C 334.410156 212.726562 334.410156 208.320312 334.410156 205.988281 L 334.410156 158.8125 C 334.410156 156.484375 334.410156 152.074219 327.671875 152.074219 L 314.195312 152.074219 Z M 314.195312 212.726562 " fill-opacity="1" fill-rule="nonzero"/></g><g clip-path="url(#dfdf2b0326)"><path fill="#0cc0df" d="M 273.761719 197.5625 L 273.761719 226.203125 C 273.761719 228.535156 273.761719 232.945312 280.5 232.945312 L 300.714844 232.945312 C 307.457031 232.945312 307.457031 228.535156 307.457031 226.203125 L 307.457031 145.335938 C 307.457031 143.003906 307.457031 138.597656 300.714844 138.597656 L 280.5 138.597656 C 273.761719 138.597656 273.761719 143.003906 273.761719 145.335938 Z M 273.761719 197.5625 " fill-opacity="1" fill-rule="nonzero"/></g></svg>